<?xml version="1.0" standalone="no"?>
<!DOCTYPE svg PUBLIC "-//W3C//DTD SVG 20010904//EN"
 "http://www.w3.org/TR/2001/REC-SVG-20010904/DTD/svg10.dtd">
<svg version="1.0" xmlns="http://www.w3.org/2000/svg"
 width="700.000000pt" height="700.000000pt" viewBox="0 0 700.000000 700.000000"
 preserveAspectRatio="xMidYMid meet">
<metadata>
Created by potrace 1.14, written by Peter Selinger 2001-2017
</metadata>
<g transform="translate(0.000000,700.000000) scale(0.100000,-0.100000)"
fill="#000000" stroke="none">
<path d="M614 6988 c-204 -22 -386 -134 -501 -306 -36 -55 -79 -150 -89 -195
-18 -85 -22 -121 -23 -223 l-2 -114 33 -1 c69 -1 233 2 235 5 2 2 5 54 7 117
5 130 20 189 70 264 43 65 104 116 180 151 49 22 78 28 180 33 l121 6 0 128
c0 71 -2 131 -5 135 -7 9 -128 9 -206 0z"/>
<path d="M1102 6993 c-4 -2 -6 -63 -6 -135 l1 -133 682 -2 681 -2 0 135 c0 74
-3 134 -7 135 -18 2 -1344 4 -1351 2z"/>
<path d="M2735 6980 c-2 -8 -4 -70 -4 -137 l0 -121 682 1 682 2 0 122 c0 67
-2 128 -5 135 -4 10 -136 13 -678 13 -589 0 -673 -2 -677 -15z"/>
<path d="M4374 6991 c-2 -2 -4 -64 -4 -137 l0 -133 680 1 680 0 0 134 c0 74
-3 134 -7 135 -26 3 -1345 3 -1349 0z"/>
<path d="M6019 6992 c-14 -2 -16 -22 -15 -135 l1 -132 85 -1 c347 -6 379 -13
487 -101 103 -83 143 -182 150 -368 3 -71 7 -132 8 -133 3 -3 144 -5 238 -3
l28 1 -2 128 c-1 151 -11 212 -48 308 -82 210 -274 375 -491 420 -67 14 -391
26 -441 16z"/>
<path d="M4 5871 c-2 -2 -4 -309 -4 -681 l0 -677 129 1 c71 1 132 4 136 8 12
11 11 1348 0 1349 -30 4 -257 4 -261 0z"/>
<path d="M6730 5836 c-1 -17 -1 -1319 -1 -1336 1 -13 23 -15 136 -15 l135 0 0
681 0 681 -135 0 c-89 -1 -135 -4 -135 -11z"/>
<path d="M1870 4675 l0 -1015 120 1 120 0 0 107 1 107 22 -30 c78 -106 154
-161 267 -196 85 -26 223 -30 310 -10 204 49 380 244 434 483 92 399 -22 788
-279 953 -158 102 -390 107 -567 13 -54 -29 -131 -101 -170 -158 -16 -24 -17
-4 -17 368 l-1 392 -120 0 -120 0 0 -1015z m739 269 c90 -15 187 -93 239 -193
56 -105 77 -211 75 -381 -3 -301 -131 -506 -335 -538 -287 -44 -473 171 -476
548 -1 166 25 288 84 387 86 147 231 209 413 177z"/>
<path d="M4555 5193 c-221 -29 -399 -146 -501 -329 -34 -61 -70 -156 -80 -214
-3 -14 -7 -32 -10 -40 -11 -28 -13 -285 -3 -335 5 -27 12 -63 14 -78 3 -15 16
-56 30 -92 84 -224 276 -377 530 -421 88 -16 296 -15 385 1 70 12 166 37 225
57 111 37 103 26 104 149 0 115 -3 123 -44 96 -41 -28 -219 -87 -305 -102 -19
-4 -87 -8 -151 -10 -128 -3 -218 14 -308 59 -125 64 -218 222 -234 397 l-4 46
542 0 c298 0 547 3 552 6 10 7 10 87 -2 229 -23 289 -213 519 -475 574 -33 7
-226 12 -265 7z m216 -208 c160 -35 289 -208 289 -389 l0 -31 -425 0 c-485 0
-438 -12 -409 99 56 216 224 338 455 330 31 -1 71 -5 90 -9z"/>
<path d="M0 3563 l0 -683 135 0 135 0 1 33 c3 199 0 1319 -4 1324 -3 3 -65 6
-137 7 l-130 1 0 -682z"/>
<path d="M6733 4207 c-3 -5 -5 -311 -5 -680 l0 -672 136 -2 136 -2 0 682 0
682 -131 0 c-72 0 -133 -4 -136 -8z"/>
<path d="M4268 2943 l-3 -207 -80 -2 c-44 -1 -83 -2 -87 -3 -3 0 -6 -41 -6
-91 l1 -90 88 0 89 0 1 -447 c0 -467 0 -467 19 -548 39 -171 136 -250 333
-271 103 -11 360 -10 371 2 6 6 11 49 11 100 l-1 89 -144 1 c-170 2 -213 7
-261 27 -83 34 -89 77 -89 614 l0 433 247 2 247 3 1 83 c0 46 -4 87 -10 91 -5
4 -117 7 -247 6 l-238 -1 0 208 0 208 -120 0 -120 0 -2 -207z"/>
<path d="M1850 2832 c0 -4 31 -48 68 -98 37 -50 76 -104 87 -119 11 -15 56
-75 100 -133 44 -59 119 -159 166 -223 l87 -115 -82 -110 c-44 -60 -139 -188
-210 -284 -71 -95 -133 -178 -138 -184 -4 -6 -38 -50 -73 -98 l-66 -88 143 0
143 0 42 58 c23 31 118 160 211 285 l170 229 178 -240 c99 -131 188 -252 199
-267 52 -71 37 -66 189 -63 l138 3 -177 240 c-98 132 -222 299 -276 372 l-98
132 167 224 c92 123 175 235 185 248 9 13 51 69 91 124 41 54 73 102 70 106
-2 4 -64 7 -137 7 l-132 -1 -193 -259 -194 -260 -21 30 c-12 16 -30 40 -40 53
-9 13 -87 117 -171 231 l-155 206 -135 1 c-75 0 -136 -3 -136 -7z"/>
<path d="M0 1930 c0 -374 3 -680 8 -681 4 -1 64 -2 135 -2 l127 -2 1 30 c0 41
0 1262 0 1303 l-1 32 -135 0 -135 0 0 -680z"/>
<path d="M6729 2533 c-3 -215 1 -1306 5 -1310 4 -5 85 -6 224 -4 l42 1 0 680
0 680 -135 0 -135 0 -1 -47z"/>
<path d="M3 775 c5 -217 7 -230 39 -320 82 -226 274 -390 513 -440 41 -9 126
-15 205 -15 l136 0 0 135 0 135 -100 1 c-173 1 -214 8 -297 49 -102 52 -183
154 -214 270 -7 25 -12 116 -12 208 -1 90 -4 166 -8 170 -3 4 -65 7 -137 7
l-130 0 5 -200z"/>
<path d="M6729 810 c-1 -74 -1 -138 0 -142 0 -4 -4 -31 -10 -60 -39 -183 -196
-321 -379 -334 -19 -1 -87 -2 -150 -3 l-116 -1 0 -136 0 -136 186 5 c198 6
250 16 360 71 166 84 300 243 352 421 16 56 21 108 25 260 l5 191 -136 0 -136
0 -1 -136z"/>
<path d="M4444 271 c-2 -2 -4 -64 -4 -138 l0 -133 680 0 680 0 1 58 c0 31 1
91 1 132 l0 75 -677 5 c-372 3 -679 3 -681 1z"/>
<path d="M1170 135 l0 -135 679 0 680 0 3 131 c2 72 1 133 -1 135 -2 2 -310 4
-683 4 l-678 0 0 -135z"/>
<path d="M2804 135 l0 -135 682 0 681 0 0 135 0 135 -681 0 -682 0 0 -135z"/>
</g>
</svg>
