<?xml version="1.0" encoding="UTF-8" standalone="no"?>
<svg
   viewBox="0 0 528.06213 144.48323"
   version="1.1"
   id="svg2847"
   sodipodi:docname="xrpl-github-button.svg"
   inkscape:version="1.1.1 (c3084ef, 2021-09-22)"
   width="528.06213"
   height="144.48323"
   xmlns:inkscape="http://www.inkscape.org/namespaces/inkscape"
   xmlns:sodipodi="http://sodipodi.sourceforge.net/DTD/sodipodi-0.dtd"
   xmlns="http://www.w3.org/2000/svg"
   xmlns:svg="http://www.w3.org/2000/svg"
   xmlns:rdf="http://www.w3.org/1999/02/22-rdf-syntax-ns#"
   xmlns:cc="http://creativecommons.org/ns#"
   xmlns:dc="http://purl.org/dc/elements/1.1/">
  <sodipodi:namedview
     id="namedview2849"
     pagecolor="#505050"
     bordercolor="#ffffff"
     borderopacity="1"
     inkscape:pageshadow="0"
     inkscape:pageopacity="0"
     inkscape:pagecheckerboard="1"
     showgrid="false"
     inkscape:zoom="0.60222293"
     inkscape:cx="203.41305"
     inkscape:cy="93.819078"
     inkscape:window-width="1296"
     inkscape:window-height="969"
     inkscape:window-x="0"
     inkscape:window-y="25"
     inkscape:window-maximized="0"
     inkscape:current-layer="svg2847"
     fit-margin-top="0"
     fit-margin-left="0"
     fit-margin-right="0"
     fit-margin-bottom="0" />
  <defs
     id="defs2829">
    <style
       id="style2827">.cls-1{opacity:0.9;}</style>
    <clipPath
       id="clip0">
      <rect
         width="347"
         height="54"
         fill="#ffffff"
         id="rect1182"
         x="0"
         y="0" />
    </clipPath>
  </defs>
  <title
     id="title2831">XRPLedger-black</title>
  <g
     id="g5380">
    <rect
       style="fill:#b3b3b3;fill-rule:evenodd;stroke:#7e7e7e;stroke-width:7;stroke-linecap:square;stroke-linejoin:round;stroke-miterlimit:4;stroke-dasharray:none;stroke-opacity:1;paint-order:fill markers stroke"
       id="rect3034"
       width="523.57947"
       height="140.0006"
       x="2.2413199"
       y="2.2413199"
       ry="28.155815" />
    <g
       id="Layer_1-2"
       data-name="Layer 1"
       style="stroke-width:6.86795;stroke-miterlimit:4;stroke-dasharray:none"
       transform="matrix(0.72801917,0,0,0.72801917,93.72917,30.016509)">
      <g
         class="cls-1"
         id="g2843"
         style="stroke-width:6.86795;stroke-miterlimit:4;stroke-dasharray:none">
        <path
           d="m 191.43,51.83 6,-12.06 h 10.07 l -10.21,18 10.47,18.42 h -10.1 l -6.09,-12.32 -6.1,12.32 H 175.4 l 10.47,-18.42 -10.21,-18 h 10.08 z m 32.07,11.39 h -4.77 V 76.08 H 210 V 39.77 h 14.3 c 4.37,0 7.68,0.93 10.07,2.92 a 9.83,9.83 0 0 1 3.71,8.08 11.91,11.91 0 0 1 -1.59,6.36 11.29,11.29 0 0 1 -4.77,4.11 l 7.55,14.7 v 0.4 h -9.41 z m -4.64,-6.75 h 5.57 a 4.54,4.54 0 0 0 3.71,-1.33 5.51,5.51 0 0 0 1.32,-3.71 4.9,4.9 0 0 0 -1.32,-3.71 4.72,4.72 0 0 0 -3.71,-1.32 h -5.57 z m 32.87,7.28 V 76.08 H 243 V 39.77 h 14.58 a 16.53,16.53 0 0 1 7.42,1.59 12.49,12.49 0 0 1 5,4.37 11.66,11.66 0 0 1 1.72,6.5 10.52,10.52 0 0 1 -3.84,8.48 c -2.52,2.12 -6,3.18 -10.47,3.18 h -5.69 z m 0,-6.75 h 5.69 a 4.85,4.85 0 0 0 3.85,-1.33 4.44,4.44 0 0 0 1.32,-3.58 5.92,5.92 0 0 0 -1.32,-4.1 4.63,4.63 0 0 0 -3.71,-1.59 h -5.83 z m 45,12.45 H 312 v 6.76 H 287.9 V 39.77 h 8.75 v 29.68 z m 41.08,-8.74 h -13.74 v 8.74 h 16.3 v 6.76 h -25 V 39.77 h 25.18 v 6.76 h -16.3 v 7.68 h 13.65 z m 5.56,15.37 V 39.77 h 11.79 A 17.89,17.89 0 0 1 364,42 a 15,15 0 0 1 6,6.23 19.67,19.67 0 0 1 2.26,8.88 v 1.72 a 18.56,18.56 0 0 1 -2.12,9 16.11,16.11 0 0 1 -14.58,8.48 h -12.14 z m 8.75,-29.55 v 22.92 h 3 A 7,7 0 0 0 361,66.8 q 2,-2.77 2,-7.95 v -1.59 q 0,-5.37 -2,-7.95 a 7.09,7.09 0 0 0 -6,-2.65 h -2.91 z m 53.71,25.17 a 14.24,14.24 0 0 1 -6,3.58 25.46,25.46 0 0 1 -8.61,1.33 c -4.77,0 -8.62,-1.46 -11.4,-4.38 -2.78,-2.92 -4.37,-7 -4.64,-12.19 v -3.18 a 22.93,22.93 0 0 1 1.86,-9.4 14.69,14.69 0 0 1 5.43,-6.23 15.5,15.5 0 0 1 8.22,-2.12 c 4.5,0 8.08,1.06 10.6,3.18 2.52,2.12 4,5.17 4.37,9.27 h -8.48 a 6.82,6.82 0 0 0 -2,-4.37 6,6 0 0 0 -4.18,-1.32 5.93,5.93 0 0 0 -5.17,2.78 14.68,14.68 0 0 0 -1.85,8 v 2.25 c 0,3.58 0.66,6.36 1.85,8.22 1.19,1.86 3.18,2.78 5.83,2.78 a 7.53,7.53 0 0 0 5.17,-1.59 v -5.7 h -6.09 v -6 h 14.84 V 71.7 Z M 433,60.7 h -13.78 v 8.74 h 16.29 v 6.76 h -25 V 39.77 h 25.18 v 6.76 h -16.3 v 7.68 h 13.78 v 6.5 z m 19.21,2.51 h -4.77 v 12.87 h -8.88 V 39.77 h 14.31 c 4.38,0 7.69,0.93 10.07,2.92 a 9.8,9.8 0 0 1 3.71,8.08 11.91,11.91 0 0 1 -1.59,6.36 11.29,11.29 0 0 1 -4.77,4.11 l 7.56,14.7 v 0.4 h -9.41 z m -4.77,-6.75 H 453 a 4.54,4.54 0 0 0 3.71,-1.33 5.51,5.51 0 0 0 1.29,-3.7 4.94,4.94 0 0 0 -1.32,-3.71 A 4.72,4.72 0 0 0 453,46.4 h -5.57 z"
           id="path2833"
           style="stroke-width:6.86795;stroke-miterlimit:4;stroke-dasharray:none" />
        <path
           d="m 35.4,7.2 h 2.8 V 0 H 35.4 A 22.58,22.58 0 0 0 12.8,22.6 V 39 A 13.6,13.6 0 0 1 0,52.6 L 0.2,56.2 0,59.8 A 13.6,13.6 0 0 1 12.8,73.4 V 92.3 A 23.66,23.66 0 0 0 36.4,116 v -7.2 A 16.41,16.41 0 0 1 20,92.4 v -19 A 20.77,20.77 0 0 0 10.9,56.2 20.9,20.9 0 0 0 20,39 V 22.6 A 15.47,15.47 0 0 1 35.4,7.2 Z"
           id="path2835"
           style="stroke-width:6.86795;stroke-miterlimit:4;stroke-dasharray:none" />
        <path
           d="m 118.6,7.2 h -2.8 V 0 h 2.8 a 22.56,22.56 0 0 1 22.5,22.6 V 39 a 13.6,13.6 0 0 0 12.8,13.6 l -0.2,3.6 0.2,3.6 A 13.6,13.6 0 0 0 141.1,73.4 V 92.3 A 23.66,23.66 0 0 1 117.5,116 v -7.2 a 16.41,16.41 0 0 0 16.4,-16.4 v -19 A 20.77,20.77 0 0 1 143,56.2 20.9,20.9 0 0 1 133.9,39 V 22.6 A 15.32,15.32 0 0 0 118.6,7.2 Z"
           id="path2837"
           style="stroke-width:6.86795;stroke-miterlimit:4;stroke-dasharray:none" />
        <path
           d="m 103.2,29 h 10.7 L 91.6,49.9 a 21.76,21.76 0 0 1 -29.2,0 L 40.1,29 h 10.7 l 16.9,15.8 a 13.68,13.68 0 0 0 18.5,0 z"
           id="path2839"
           style="stroke-width:6.86795;stroke-miterlimit:4;stroke-dasharray:none" />
        <path
           d="M 50.7,87 H 40 L 62.4,66 a 21.55,21.55 0 0 1 29.2,0 L 114,87 h -10.7 l -17,-16 a 13.68,13.68 0 0 0 -18.5,0 z"
           id="path2841"
           style="stroke-width:6.86795;stroke-miterlimit:4;stroke-dasharray:none" />
      </g>
    </g>
  </g>
  <metadata
     id="metadata2908">
    <rdf:RDF>
      <cc:Work
         rdf:about="">
        <dc:title>XRPLedger-black</dc:title>
      </cc:Work>
    </rdf:RDF>
  </metadata>
  <g
     style="fill:none"
     id="g4095"
     transform="matrix(1.2983202,0,0,1.2983202,-6.4726119,138.99611)" />
</svg>
