<?xml version="1.0" encoding="UTF-8" standalone="no"?>
<svg
   width="412.48624"
   height="106.87156"
   viewBox="0 0 412.48623 106.87156"
   fill="none"
   version="1.1"
   id="svg1187"
   sodipodi:docname="xumm-github-button.svg"
   inkscape:version="1.1.1 (c3084ef, 2021-09-22)"
   xmlns:inkscape="http://www.inkscape.org/namespaces/inkscape"
   xmlns:sodipodi="http://sodipodi.sourceforge.net/DTD/sodipodi-0.dtd"
   xmlns="http://www.w3.org/2000/svg"
   xmlns:svg="http://www.w3.org/2000/svg">
  <sodipodi:namedview
     id="namedview1189"
     pagecolor="#505050"
     bordercolor="#ffffff"
     borderopacity="1"
     inkscape:pageshadow="0"
     inkscape:pageopacity="0"
     inkscape:pagecheckerboard="1"
     showgrid="false"
     fit-margin-top="0"
     fit-margin-left="0"
     fit-margin-right="0"
     fit-margin-bottom="0"
     inkscape:zoom="1.1105856"
     inkscape:cx="198.54391"
     inkscape:cy="92.293653"
     inkscape:window-width="1312"
     inkscape:window-height="969"
     inkscape:window-x="0"
     inkscape:window-y="25"
     inkscape:window-maximized="0"
     inkscape:current-layer="svg1187" />
  <g
     id="g2708">
    <rect
       style="fill:#b3b3b3;fill-rule:evenodd;stroke:#3051fc;stroke-width:5;stroke-linecap:square;stroke-linejoin:round;stroke-miterlimit:4;stroke-dasharray:none;stroke-opacity:1;paint-order:fill markers stroke"
       id="rect1293"
       width="407.48624"
       height="101.87156"
       x="2.5"
       y="2.5"
       ry="17.270466"
       rx="17.270466" />
    <g
       clip-path="url(#clip0)"
       id="g1180"
       transform="translate(32.743141,26.812779)"
       style="stroke-width:10;stroke-miterlimit:4;stroke-dasharray:none">
      <path
         d="m 83.2689,52.6807 c -6.5041,0 -14.6142,-1.8572 -18.9503,-6.7828 C 60.0628,40.8915 57.9751,34.8354 57.9751,27.7295 V 10.7723 c 0,-1.53418 0,-2.66466 0.0803,-3.39139 0.1606,-0.72674 0.4015,-1.53422 0.8833,-2.5032 0.8833,-1.77647 3.3725,-2.58395 7.548,-2.58395 4.4967,0 7.1465,1.21123 7.9495,3.71443 0.4015,1.04972 0.5621,2.66469 0.5621,4.92561 V 27.891 c 0,2.6647 0.7226,4.7641 2.2483,6.2176 1.5257,1.4535 3.5331,2.261 6.1026,2.261 2.5696,0 4.6573,-0.8075 6.183,-2.3417 1.6059,-1.5343 2.4089,-3.553 2.4089,-6.1369 V 10.6108 c 0,-1.45343 0,-2.58391 0.0803,-3.31064 0.1606,-0.80748 0.4818,-1.61497 0.9636,-2.58395 0.803,-1.69571 3.2922,-2.5032 7.468,-2.5032 4.095,0 6.504,0.88823 7.467,2.58395 0.482,0.96898 0.723,1.85721 0.803,2.58395 0.161,0.72673 0.161,1.77646 0.161,3.31069 v 17.1186 c 0,7.4289 -2.409,13.6465 -6.825,18.0877 -4.5773,4.4411 -12.848,6.5406 -18.7901,6.7828 z"
         fill="#ffffff"
         id="path1170"
         style="stroke-width:10;stroke-miterlimit:4;stroke-dasharray:none" />
      <path
         d="m 37.6597,27.0028 10.6796,10.901 c 2.3287,2.3417 3.4529,4.3604 3.4529,6.0562 0,1.6149 -1.1242,3.5529 -3.4529,5.8946 -2.3286,2.2609 -4.2557,3.3914 -5.8617,3.3914 -1.606,0 -3.5331,-1.1305 -5.8618,-3.4722 L 26.0165,38.9536 15.2566,49.7738 C 12.928,52.1155 11.0008,53.246 9.39486,53.246 7.86919,53.246 5.86175,52.1155 3.53311,49.8546 1.20447,47.5129 0,45.4942 0,43.8792 0,42.1835 1.12417,40.1648 3.45281,37.8231 L 14.1324,26.9221 3.53311,16.1825 C 1.20447,13.8408 0,11.8221 0,10.2071 0,8.51143 1.12417,6.49272 3.45281,4.15101 5.86175,1.80931 7.7889,0.678833 9.31456,0.678833 c 1.60594,0 3.53314,1.130477 5.86174,3.472177 L 26.0165,15.052 36.6158,4.23176 c 2.3287,-2.3417 4.2558,-3.472179 5.8618,-3.472179 1.606,0 3.5331,1.130479 5.8617,3.472179 2.3287,2.3417 3.4529,4.36041 3.4529,6.05614 0,1.615 -1.1242,3.5529 -3.4529,5.8946 z"
         fill="#ffffff"
         id="path1172"
         style="stroke-width:10;stroke-miterlimit:4;stroke-dasharray:none" />
      <path
         fill-rule="evenodd"
         clip-rule="evenodd"
         d="m 152.887,6.33117 c -4.095,-3.63368 -9.073,-5.08715 -14.694,-5.08715 -6.504,0 -11.804,2.42245 -16.22,6.86361 -4.417,4.44117 -6.826,10.65877 -6.826,18.08767 v 17.1186 c 0,1.4535 0.081,2.584 0.161,3.3107 0.08,0.8075 0.321,1.615 0.803,2.5839 0.883,1.7765 3.372,2.584 7.467,2.584 4.096,0 6.585,-0.8075 7.468,-2.5032 0.482,-0.969 0.803,-1.8572 0.964,-2.584 0.08,-0.7267 0.08,-1.7764 0.08,-3.3106 V 26.1953 c 0,-2.5032 0.803,-4.6027 2.409,-6.1369 1.526,-1.5342 3.453,-1.5342 3.774,-1.5342 0.321,0 2.168,0 3.613,1.4534 1.446,1.4535 2.249,3.553 2.249,6.2177 v 16.9571 0.0808 c 0,1.4534 0.08,2.5839 0.16,3.3106 0.081,0.8075 0.322,1.615 0.803,2.584 0.884,1.7765 3.373,2.5839 7.468,2.5839 0,0 0,0 0.08,0 0,0 0,0 0.081,0 4.095,0 6.664,-0.8882 7.548,-2.5839 0.481,-0.969 0.722,-1.7765 0.883,-2.5032 0.08,-0.7267 0.08,-1.8572 0.08,-3.3914 V 26.276 c 0,-0.4845 0,-0.8882 0,-1.3727 0.241,-1.938 1.044,-3.5529 2.329,-4.8449 1.526,-1.5342 3.453,-1.5342 3.774,-1.5342 0.321,0 2.168,0 3.613,1.4534 1.446,1.4535 2.249,3.553 2.249,6.2177 v 16.9571 c 0,2.261 0.16,3.9567 0.562,4.9257 0.803,2.4224 3.372,3.7144 7.949,3.7144 4.095,0 6.665,-0.8882 7.548,-2.584 0.482,-0.9689 0.723,-1.7764 0.883,-2.5032 0.081,-0.7267 0.081,-1.8572 0.081,-3.3914 V 26.3568 c 0,-7.1059 -2.088,-13.162 -6.344,-18.16842 -4.336,-4.92565 -10.037,-6.86361 -16.541,-6.86361 -5.701,-0.08075 -10.439,1.69571 -14.454,5.0064 z"
         fill="#ffffff"
         id="path1174"
         style="stroke-width:10;stroke-miterlimit:4;stroke-dasharray:none" />
      <path
         fill-rule="evenodd"
         clip-rule="evenodd"
         d="m 233.346,6.33117 c -4.095,-3.63368 -9.074,-5.08715 -14.695,-5.08715 -6.504,0 -11.804,2.42245 -16.22,6.86361 -4.416,4.44117 -6.825,10.65877 -6.825,18.08767 v 17.1186 c 0,1.4535 0.08,2.584 0.16,3.3107 0.081,0.8075 0.322,1.615 0.803,2.5839 0.884,1.7765 3.373,2.584 7.468,2.584 4.095,0 6.584,-0.8075 7.468,-2.5032 0.481,-0.969 0.803,-1.8572 0.963,-2.584 0.081,-0.7267 0.081,-1.7764 0.081,-3.3106 V 26.1953 c 0,-2.5032 0.803,-4.6027 2.409,-6.1369 1.525,-1.5342 3.452,-1.5342 3.774,-1.5342 0.321,0 2.168,0 3.613,1.4534 1.445,1.4535 2.248,3.553 2.248,6.1369 v 0.0808 17.1186 c 0,1.4535 0.081,2.584 0.161,3.3107 0.08,0.8075 0.321,1.615 0.803,2.5839 0.883,1.7765 3.372,2.584 7.468,2.584 0,0 0,0 0.08,0 0,0 0,0 0.08,0 4.095,0 6.665,-0.8882 7.548,-2.584 0.482,-0.9689 0.723,-1.7764 0.883,-2.5032 0.081,-0.7267 0.081,-1.8572 0.081,-3.3914 V 26.3568 c 0,-0.4845 0,-0.8883 0,-1.3728 0.241,-1.9379 1.044,-3.5529 2.328,-4.8449 1.526,-1.5342 3.453,-1.5342 3.774,-1.5342 0.322,0 2.168,0 3.614,1.4535 1.445,1.4535 2.248,3.5529 2.248,6.2176 v 16.9572 c 0,2.2609 0.161,3.9566 0.562,4.9256 0.803,2.4225 3.373,3.7144 7.95,3.7144 4.095,0 6.664,-0.8882 7.548,-2.5839 0.481,-0.969 0.722,-1.7765 0.883,-2.5032 0.08,-0.7267 0.08,-1.8572 0.08,-3.3914 V 26.4375 c 0,-7.1058 -2.087,-13.162 -6.343,-18.16837 -4.336,-4.92565 -10.037,-6.86361 -16.542,-6.86361 -5.701,-0.1615 -10.438,1.61496 -14.453,4.92565 z"
         fill="#ffffff"
         id="path1176"
         style="stroke-width:10;stroke-miterlimit:4;stroke-dasharray:none" />
      <path
         fill-rule="evenodd"
         clip-rule="evenodd"
         d="m 344.077,2.2938 c 3.613,3.31069 3.934,9.0438 0.642,12.6775 l -30.272,33.5106 c -1.687,1.8572 -4.015,2.9069 -6.504,2.9069 -2.49,0 -4.899,-0.969 -6.585,-2.8262 L 285.138,31.444 c -3.373,-3.553 -3.292,-9.2861 0.321,-12.6775 3.533,-3.3915 9.234,-3.3107 12.607,0.323 l 9.636,10.1743 23.768,-26.32401 c 3.292,-3.633676 8.913,-3.95667 12.607,-0.64599 z"
         fill="#3051fc"
         id="path1178"
         style="stroke-width:10;stroke-miterlimit:4;stroke-dasharray:none" />
    </g>
  </g>
  <defs
     id="defs1185">
    <clipPath
       id="clip0">
      <rect
         width="347"
         height="54"
         fill="#ffffff"
         id="rect1182"
         x="0"
         y="0" />
    </clipPath>
  </defs>
</svg>
